<svg width="31.934" height="31.934" xmlns="http://www.w3.org/2000/svg">

 <g>
  <title>background</title>
  <rect fill="none" id="canvas_background" height="402" width="582" y="-1" x="-1"/>
 </g>
 <g>
  <title>Layer 1</title>
  <g id="svg_1">
   <g id="svg_2">
    <path id="svg_3" d="m15.966,0c-4.74,0 -8.652,3.857 -8.652,8.597l0,14.739c0,4.74 3.912,8.598 8.652,8.598c4.741,0 8.653,-3.857 8.653,-8.598l0,-14.739c-0.001,-4.74 -3.912,-8.597 -8.653,-8.597zm-6.129,8.905c0,-3.906 2.515,-5.598 3.841,-5.948c0.657,-0.173 1.333,0.221 1.505,0.875c0.171,0.651 -0.186,1.317 -0.832,1.497c-0.219,0.065 -1.99,0.697 -1.99,3.576l0,4.606c0,0.678 -0.583,1.228 -1.262,1.228c-0.677,0 -1.262,-0.55 -1.262,-1.228l0,-4.606zm12.257,14.431c0,3.386 -2.742,6.141 -6.128,6.141c-3.385,0 -6.129,-2.755 -6.129,-6.141l0,-5.167c0,-0.972 0.788,-1.759 1.759,-1.759l8.739,0c0.973,0 1.76,0.787 1.76,1.759l0,5.167l-0.001,0z"/>
   </g>
  </g>
  <g id="svg_4"/>
  <g id="svg_5"/>
  <g id="svg_6"/>
  <g id="svg_7"/>
  <g id="svg_8"/>
  <g id="svg_9"/>
  <g id="svg_10"/>
  <g id="svg_11"/>
  <g id="svg_12"/>
  <g id="svg_13"/>
  <g id="svg_14"/>
  <g id="svg_15"/>
  <g id="svg_16"/>
  <g id="svg_17"/>
  <g id="svg_18"/>
  <ellipse ry="6.054044" rx="4.054047" id="svg_19" cy="8.987282" cx="12.939978" stroke-width="1.5" stroke="#000000" fill="#000000"/>
 </g>
</svg>